<?xml version="1.0" standalone="no"?><!DOCTYPE svg PUBLIC "-//W3C//DTD SVG 1.1//EN" "http://www.w3.org/Graphics/SVG/1.1/DTD/svg11.dtd"><svg t="1756549462557" class="icon" viewBox="0 0 1024 1024" version="1.1" xmlns="http://www.w3.org/2000/svg" p-id="900" width="256" height="256" xmlns:xlink="http://www.w3.org/1999/xlink"><path d="M512 56.888889C260.551111 56.888889 56.888889 260.551111 56.888889 512s203.662222 455.111111 455.111111 455.111111 455.111111-203.662222 455.111111-455.111111-203.662222-455.111111-455.111111-455.111111z m180.906667 636.017778c-50.062222 50.062222-110.364444 75.093333-180.906667 75.093333s-130.844444-25.031111-180.906667-75.093333C281.031111 642.844444 256 582.542222 256 512c0-45.511111 10.24-86.471111 30.72-123.448889l-49.493333 17.635556a28.501333 28.501333 0 0 1-19.342223-53.475556l106.951112-38.115555c14.791111-5.12 31.288889 2.275556 36.408888 17.066666l38.115556 106.951111a28.501333 28.501333 0 0 1-53.475556 19.342223l-12.515555-35.84c-13.653333 26.737778-20.48 56.888889-20.48 89.315555 0 55.182222 19.342222 101.831111 58.595555 140.515556S457.386667 710.542222 512 710.542222s101.831111-19.342222 140.515556-58.595555 58.595556-85.902222 58.595555-140.515556-19.342222-101.831111-58.595555-140.515555S566.613333 312.32 512 312.32c-15.928889 0-28.444444-12.515556-28.444444-28.444444s12.515556-28.444444 28.444444-28.444445c70.542222 0 130.844444 25.031111 180.906667 75.093333 50.062222 50.062222 75.093333 110.364444 75.093333 180.906667s-25.031111 130.844444-75.093333 180.906667z" p-id="901" fill="#000000"></path></svg>