<?xml version="1.0" standalone="no"?><!DOCTYPE svg PUBLIC "-//W3C//DTD SVG 1.1//EN" "http://www.w3.org/Graphics/SVG/1.1/DTD/svg11.dtd"><svg t="1756536522243" class="icon" viewBox="0 0 1024 1024" version="1.1" xmlns="http://www.w3.org/2000/svg" p-id="1953" xmlns:xlink="http://www.w3.org/1999/xlink" width="200" height="200"><path d="M512 63.3344A448.6656 448.6656 0 1 0 960.6656 512 449.1776 449.1776 0 0 0 512 63.3344z m0 835.8912A387.2256 387.2256 0 1 1 899.2256 512 387.6864 387.6864 0 0 1 512 899.2256z" fill="#000000" p-id="1954"></path><path d="M687.7696 336.2304a30.72 30.72 0 0 0-43.4176 0L512 468.5312 379.648 336.2304a30.72 30.72 0 1 0-43.4176 43.4176L468.5312 512l-132.3008 132.352a30.72 30.72 0 1 0 43.4176 43.4176L512 555.4688l132.352 132.3008a30.72 30.72 0 0 0 43.4176-43.4176L555.4688 512l132.3008-132.352a30.72 30.72 0 0 0 0-43.4176z" fill="#000000" p-id="1955"></path></svg>