<?xml version="1.0" standalone="no"?><!DOCTYPE svg PUBLIC "-//W3C//DTD SVG 1.1//EN" "http://www.w3.org/Graphics/SVG/1.1/DTD/svg11.dtd"><svg t="1756535927872" class="icon" viewBox="0 0 1024 1024" version="1.1" xmlns="http://www.w3.org/2000/svg" p-id="893" xmlns:xlink="http://www.w3.org/1999/xlink" width="200" height="200"><path d="M946.062222 370.915556h-1.706666c-75.662222 0-136.533333-63.715556-136.533334-142.222223 0-22.755556 5.12-43.804444 14.222222-62.577777A458.922667 458.922667 0 0 0 633.742222 56.32c-22.755556 46.08-68.835556 77.368889-121.742222 77.368889S413.013333 102.4 390.257778 56.32a450.218667 450.218667 0 0 0-188.302222 109.795556c9.102222 18.773333 14.222222 40.391111 14.222222 62.577777 0 78.506667-60.871111 142.222222-136.533334 142.222223h-1.706666C64.284444 415.857778 56.888889 463.644444 56.888889 513.137778c0 32.426667 3.413333 64.853333 9.102222 95.573333 4.551111 0 9.102222-0.568889 13.653333-0.568889 75.662222 0 136.533333 63.715556 136.533334 142.222222 0 34.702222-11.946667 66.56-31.857778 91.591112a454.712889 454.712889 0 0 0 197.973333 125.724444c17.635556-57.457778 69.404444-98.986667 130.275556-98.986667s112.64 41.528889 130.275555 98.986667a457.955556 457.955556 0 0 0 197.973334-125.724444c-19.911111-24.462222-31.857778-56.888889-31.857778-91.591112 0-78.506667 60.871111-142.222222 136.533333-142.222222 4.551111 0 9.102222 0 13.653334 0.568889 6.257778-30.72 9.102222-62.577778 9.102222-95.573333 0-49.493333-7.395556-97.28-21.048889-142.222222z m-333.368889 241.777777c-27.875556 27.875556-61.44 41.528889-100.693333 41.528889s-72.817778-13.653333-100.693333-41.528889S369.777778 551.253333 369.777778 512s13.653333-72.817778 41.528889-100.693333S472.746667 369.777778 512 369.777778s72.817778 13.653333 100.693333 41.528889 41.528889 61.44 41.528889 100.693333-13.653333 72.817778-41.528889 100.693333z" p-id="894"></path><path d="M512 426.666667c-23.324444 0-43.804444 8.533333-60.302222 25.031111S426.666667 488.675556 426.666667 512s8.533333 43.804444 25.031111 60.302222 36.977778 25.031111 60.302222 25.031111 43.804444-8.533333 60.302222-25.031111 25.031111-36.977778 25.031111-60.302222-8.533333-43.804444-25.031111-60.302222S535.324444 426.666667 512 426.666667z" p-id="895"></path></svg>